<?xml version="1.0" encoding="utf-8"?>
<!-- Generator: Adobe Illustrator 23.0.1, SVG Export Plug-In . SVG Version: 6.00 Build 0)  -->
<svg version="1.1" id="Layer_1" xmlns="http://www.w3.org/2000/svg" xmlns:xlink="http://www.w3.org/1999/xlink" x="0px" y="0px"
	 viewBox="0 0 648 223.2" style="enable-background:new 0 0 648 223.2;" xml:space="preserve">
<g>
	<path d="M4.3,22.6h99.4v26.7H33.6v33.9h68.8v26.7H33.6V171H4.3V22.6z"/>
	<path d="M212.5,65.8h28V171h-28v-15.3h-4c-4.9,12.2-15.4,18.2-31.5,18.2c-5.5,0-10.6-0.8-15.3-2.5c-4.7-1.7-8.9-4.3-12.4-7.8
		c-3.6-3.5-6.3-8-8.3-13.3c-2-5.3-3-11.6-3-18.8V65.8h28V126c0,7.5,1.8,13.3,5.5,17.5c3.7,4.2,9.2,6.3,16.6,6.3
		c8.4,0,14.6-2.6,18.5-7.7c3.9-5.2,5.9-12.2,5.9-21.1V65.8z"/>
	<path d="M301.7,171h-28V65.8h28v15.7h4c2.5-5.9,6.6-10.5,12.2-13.8c5.6-3.2,12.2-4.9,19.7-4.9c5.3,0,10.3,0.8,15,2.4
		c4.7,1.6,8.8,4.1,12.3,7.5c3.6,3.4,6.3,7.7,8.3,12.9c2,5.2,3,11.4,3,18.7V171h-28v-59.8c0-7.5-1.9-13.4-5.7-17.7
		c-3.8-4.3-9.2-6.5-16.3-6.5c-8.3,0-14.5,2.7-18.5,8c-4.1,5.3-6.1,12.4-6.1,21.3V171z"/>
	<path d="M488.1,155.7h-4c-1.2,2.4-2.6,4.7-4.3,6.9c-1.7,2.2-3.9,4.1-6.7,5.8c-2.7,1.7-6,3-9.8,4c-3.8,1-8.3,1.5-13.6,1.5
		c-6.8,0-13.1-1.2-19-3.5c-5.8-2.3-10.9-5.8-15.3-10.4c-4.4-4.6-7.8-10.2-10.2-16.9c-2.4-6.6-3.7-14.3-3.7-22.9v-3.8
		c0-8.5,1.3-16,3.9-22.7c2.6-6.6,6.1-12.3,10.7-16.9c4.5-4.6,9.8-8.1,15.8-10.5c6-2.4,12.3-3.6,19-3.6c8.9,0,15.9,1.6,21.1,4.8
		c5.2,3.2,9.2,7.7,12.2,13.5h4V65.8h28v131c0,4.8-1.6,8.8-4.8,11.9c-3.2,3.1-7.3,4.7-12.3,4.7h-74.1v-25.4h57.2c4,0,6-2.1,6-6.4
		V155.7z M458.8,148.5c8.7,0,15.8-2.6,21.2-8c5.4-5.3,8.1-12.3,8.1-20.9v-2.5c0-8.6-2.7-15.6-8.1-20.9c-5.4-5.3-12.5-8-21.2-8
		c-8.7,0-15.8,2.6-21.2,7.7c-5.4,5.2-8.1,12.2-8.1,21.1v2.5c0,8.9,2.7,15.9,8.1,21.1C443,145.9,450,148.5,458.8,148.5z"/>
	<g>
		<path d="M547.3,145.5h37.3V91.3H550V65.8h62.6v79.7h32V171h-97.2V145.5z"/>
		<g>
			<path d="M568.8,28.7c2.9-0.1,5.5-2.5,5.4-4.9c0-0.2,0-0.6-0.1-0.7c-1-0.7-0.5-1,0.2-1.7c2.1-1.8,4.5-3.1,7.1-4.1
				c0.5-0.2,1.2-0.3,1.9-0.5c-0.2,0.2-0.2,0.4-0.3,0.5c-0.3,0.2-0.7,0.4-1,0.6c-1.6,1-1.7,1.6-0.4,3c0.1,0.1,0.3,0.3,0.5,0.3
				c1.8,0,3.7-0.2,5.3-1c0.7-0.3,0.9-1.9,0.5-2.6c-0.3-0.5-0.7-0.8-1.1-1.2c0.6-0.5,6.5-0.2,8.8,0.3c7.5,1.8,12.9,6.2,16.7,12.4
				c-0.6,0.6-1.5,1.1-1.4,1.4c0.2,1,0.7,2,1.2,3c0.1,0.2,0.7,0.3,0.9,0.2c1.2-0.5,1.4,0.4,1.5,1.1c0.2,2.3,0.3,4.7,0.4,7
				c0,0.7-0.3,1.4-0.5,2.1c-0.2,0.7-0.3,1.4-0.6,1.9c-0.9,1.4-1.6,2.9-3.1,3.9c-0.9,0.6-2.1,0.9-3,1.5c-2.1,1.2-4.6,1.2-6.9,1.5
				c-7.4,0.9-14.7,0.2-22.1,0.4c-0.9,0-1.8,0.2-2.9-0.2c-1-0.3-2.3-0.4-3.4-0.7c-1.8-0.5-3.1-1.5-3.7-3.1c-0.6-1.6-1.3-3.3-1.8-5
				c-0.3-1.2-0.4-2.6-0.4-3.8c0-2.3-0.1-4.6,0.9-6.7c0.4-0.8,0.5-1.8,0.8-2.7C568.1,30,568.5,29.3,568.8,28.7z M580.1,24.4
				c-1.9-0.4-3.2,0.8-4.6,1.6c-0.7,0.4-0.4,3.7,0.3,4.2c0.2,0.1,0.6,0.2,0.9,0.1c1.7,0,3.5-0.1,5.2-0.2c1.2-0.1,2.3-1,2.2-2.1
				c0-0.7-0.5-1.3-0.8-2C582.7,24.8,581.7,24.1,580.1,24.4z M583.8,40.4c0.9-0.2,1.6-0.2,2.3-0.5c0.3-0.1,0.6-0.8,0.5-1.1
				c-0.3-0.7-0.8-1.4-1.4-1.9c-1.3-1.4-3-1.4-4.6-0.6c-0.8,0.3-1.3,1.3-1.2,2.3c0.1,0.9,0.7,0.9,1.4,0.9c0.2,0,0.4,0.2,0.6,0.2
				C582.2,39.9,583.1,40.2,583.8,40.4z M603.8,29.2c1.4,0,3.3-1.5,3.3-2.8c0-0.8-1.4-2.4-2.2-2.4c-2.1,0.1-4.2,1.4-4.1,2.7
				C600.8,27.6,602.7,29.2,603.8,29.2z M597,39.8c0.4-0.2,0.8-0.3,0.9-0.4c0.6-0.7,1.2-1.4,1.8-2.1c0.1-0.1,0.1-0.5,0-0.6
				c-0.2-0.4-0.4-0.8-0.7-1.2c-0.4-0.6-1.9-1.2-2.3-1.1c-0.4,0.2-0.8,0.3-1.2,0.4c-1.2,0.3-1.9,1.1-1.5,2c0.2,0.6,0.5,1.3,1,1.7
				C595.5,39,596.3,39.4,597,39.8z M594.8,23.7c0.5-0.1,1-0.1,1.4-0.3c0.8-0.4,1.6-0.8,1.6-1.8c0-0.9-0.4-1.7-1.2-1.9
				c-2.7-0.9-3.9-1.1-4.5,2.1c-0.1,0.8,0.2,1.3,0.9,1.6C593.6,23.6,594.2,23.6,594.8,23.7z M594.4,28.7c-0.3-0.4-0.7-1-1.2-1.5
				c-0.8-0.7-1.7-0.5-2.7-0.4c-1.1,0.1-2.1,0.8-2.1,1.7c-0.1,1,0.9,2,2,2.2c1,0.2,1.9-0.2,2.8-0.3C594.1,30.1,594.1,29.5,594.4,28.7
				z M569.7,37.4c0.3,0,0.6,0,0.9,0c0.8-0.2,1.6-0.5,1.7-1.3c0-0.6-0.4-1.3-0.9-1.6c-0.4-0.4-1.2-0.5-1.8-0.5c-0.4,0-1,0.1-1.3,0.4
				c-0.2,0.2,0,0.7,0,1.1c0,0.3,0.2,0.6,0.2,0.9C568.3,37.2,568.7,37.6,569.7,37.4z M610,35.7c-0.5-0.5-0.9-1.2-1.5-1.5
				c-0.6-0.3-1.8,0.8-1.9,1.4c0,0.9,0.6,1.7,1.4,1.8C609,37.5,609.8,36.7,610,35.7z M605.3,42.4c1.6,0,2-0.4,1.9-1.4
				c-0.1-0.8-0.9-0.7-1.5-0.8c-0.6-0.1-1.4,0.7-1.2,1.4C604.7,42,605.2,42.3,605.3,42.4z M587.2,47.5c0.9,0,1.9-0.6,1.8-1.2
				c-0.1-0.6-0.5-0.9-1.2-0.9c-1.3,0-1.8,0.3-1.7,1.1C586.1,47.1,586.5,47.6,587.2,47.5z M574.9,44.5c1-0.1,1.4-0.7,1.3-1.3
				c0-0.6-0.4-1-1.1-1c-0.8,0-1.3,0.6-1.3,1.1C573.8,43.7,574.5,44.1,574.9,44.5z"/>
		</g>
	</g>
</g>
</svg>
